<?xml version="1.0" standalone="no"?>
<!DOCTYPE svg PUBLIC "-//W3C//DTD SVG 20010904//EN"
 "http://www.w3.org/TR/2001/REC-SVG-20010904/DTD/svg10.dtd">
<svg version="1.0" xmlns="http://www.w3.org/2000/svg"
 width="550.000000pt" height="712.000000pt" viewBox="0 0 550.000000 712.000000"
 preserveAspectRatio="xMidYMid meet">

<g transform="translate(0.000000,712.000000) scale(0.100000,-0.100000)"
fill="#000000" stroke="none">
<path d="M2146 5270 c-198 -32 -401 -121 -576 -255 l-60 -45 0 130 0 130 -597
-2 -598 -3 0 -400 0 -400 198 -3 197 -2 0 -890 0 -890 -197 -2 -198 -3 0 -400
0 -400 795 0 795 0 0 400 0 400 -197 3 -198 2 0 734 0 733 69 46 c94 62 212
121 301 148 103 32 228 33 285 2 77 -41 120 -106 158 -241 21 -76 22 -87 27
-1152 l5 -1075 595 0 595 0 0 400 0 400 -197 3 -198 2 0 735 0 734 83 54 c151
100 283 153 410 163 176 15 276 -63 334 -261 16 -55 18 -148 23 -1145 l5
-1085 595 0 595 0 3 403 2 402 -199 0 -200 0 -4 838 c-4 907 -8 985 -62 1200
-76 301 -262 501 -532 574 -104 28 -339 30 -458 4 -237 -52 -467 -176 -671
-360 l-73 -66 -52 77 c-122 182 -279 296 -475 348 -73 19 -249 27 -328 15z
m332 -50 c186 -52 343 -174 460 -357 25 -40 51 -73 58 -73 7 0 42 26 76 58
351 327 765 463 1126 371 256 -65 448 -284 516 -586 45 -202 49 -278 53 -1170
l5 -853 199 0 199 0 0 -375 0 -375 -570 0 -570 0 0 1043 c-1 1111 -1 1121 -50
1250 -30 79 -75 134 -140 171 -52 29 -61 31 -160 31 -81 0 -122 -6 -180 -24
-95 -29 -205 -83 -303 -150 l-77 -52 0 -759 0 -760 200 0 200 0 0 -375 0 -375
-570 0 -569 0 -4 1068 c-3 992 -4 1072 -21 1137 -40 155 -108 248 -206 280
-141 47 -371 -19 -602 -172 l-68 -45 0 -759 0 -759 200 0 200 0 0 -375 0 -375
-770 0 -770 0 0 375 0 375 200 0 200 0 0 920 0 920 -200 0 -200 0 0 375 0 375
570 0 570 0 0 -140 c0 -86 4 -140 10 -140 5 0 52 32 102 70 162 123 386 222
564 250 84 13 237 4 322 -20z"/>
</g>
</svg>
