<?xml version="1.0" standalone="no"?>
<!DOCTYPE svg PUBLIC "-//W3C//DTD SVG 20010904//EN"
 "http://www.w3.org/TR/2001/REC-SVG-20010904/DTD/svg10.dtd">
<svg version="1.0" xmlns="http://www.w3.org/2000/svg"
 width="401.000000pt" height="405.000000pt" viewBox="0 0 401.000000 405.000000"
 preserveAspectRatio="xMidYMid meet">

<g transform="translate(0.000000,405.000000) scale(0.100000,-0.100000)"
fill="#000000" stroke="none">
<path d="M1810 3970 c-47 -5 -132 -18 -190 -29 -852 -169 -1469 -846 -1571
-1721 -17 -147 -7 -423 21 -565 50 -260 155 -514 301 -733 170 -253 427 -485
699 -630 472 -252 1043 -301 1543 -132 200 68 421 184 576 303 140 107 309
288 423 452 81 117 184 329 244 505 l19 55 6 -200 c3 -110 9 -210 13 -222 6
-20 42 -42 94 -58 l22 -6 0 444 0 445 -28 10 -29 10 -6 173 c-9 253 -46 434
-134 664 -100 259 -282 531 -465 696 -134 120 -153 135 -248 201 -273 186
-576 297 -915 334 -139 15 -239 16 -375 4z m540 -134 c63 -14 151 -36 195 -49
322 -98 658 -323 871 -582 278 -340 425 -740 428 -1167 1 -155 1 -157 -25
-185 -63 -68 -185 -292 -249 -457 -19 -47 -37 -86 -40 -86 -4 0 -38 93 -76
208 l-69 207 0 155 c1 132 4 163 22 211 l20 56 -23 38 -23 39 -20 -46 c-21
-49 -46 -140 -56 -200 -3 -21 -9 -38 -13 -38 -4 1 -20 29 -35 63 -15 34 -53
108 -84 164 l-57 102 -28 -20 c-15 -11 -28 -24 -28 -29 0 -4 32 -66 70 -136
128 -234 296 -673 345 -899 10 -44 24 -100 31 -124 23 -72 18 -94 -33 -162
-65 -86 -222 -249 -308 -319 -311 -253 -679 -393 -1092 -416 -196 -11 -443 24
-652 92 -150 49 -367 159 -496 251 -105 75 -326 276 -315 286 3 3 109 -7 235
-23 343 -43 448 -49 815 -45 437 5 653 25 702 65 42 33 -13 80 -137 115 -33
10 -64 21 -68 25 -5 4 8 158 28 341 35 313 39 335 60 354 19 17 25 37 35 119
10 82 23 126 76 260 l65 161 -2 100 c-3 149 -17 272 -39 345 -31 99 -49 115
-146 126 -38 4 -67 14 -81 27 l-22 20 -9 -24 c-5 -13 -35 -97 -67 -186 -31
-90 -61 -163 -65 -163 -7 0 -47 137 -85 291 -22 89 -29 98 -53 76 -11 -11 -35
-17 -63 -17 -24 0 -61 -5 -82 -11 -43 -12 -67 -50 -87 -141 -7 -32 -16 -58
-20 -58 -4 0 -11 24 -14 53 -11 89 -60 147 -125 149 -17 1 -33 -1 -36 -3 -2
-3 3 -29 11 -58 9 -29 14 -55 11 -57 -3 -3 -19 2 -37 11 -39 20 -79 13 -111
-21 l-23 -24 -30 29 c-41 38 -67 45 -110 27 -20 -8 -37 -12 -40 -8 -2 4 7 35
21 70 15 36 22 67 17 72 -5 5 -33 13 -61 18 -40 7 -57 6 -72 -4 -37 -26 -201
-380 -201 -434 0 -28 43 -45 150 -60 182 -25 194 -65 90 -282 -59 -123 -77
-203 -60 -263 6 -22 32 -70 56 -107 70 -105 87 -152 92 -248 5 -102 -8 -174
-47 -256 -57 -122 -124 -174 -297 -234 -65 -22 -139 -52 -163 -66 l-46 -25
-28 33 c-59 69 -171 247 -222 353 -68 140 -115 284 -151 455 -25 122 -28 155
-28 340 -1 123 4 236 12 281 47 281 143 529 285 744 77 116 122 171 221 273
278 286 600 459 1001 536 119 23 142 24 365 21 174 -3 222 -7 320 -29z m-185
-1276 c3 -5 1 -18 -4 -27 -6 -10 -11 -13 -11 -6 0 6 -3 18 -6 27 -7 17 11 22
21 6z m-1105 -84 c17 -51 26 -96 18 -96 -2 0 -28 9 -58 20 -30 12 -61 23 -68
25 -9 3 0 24 29 66 23 35 45 57 50 52 5 -5 18 -35 29 -67z m328 5 c3 -16 -1
-22 -10 -19 -7 3 -15 15 -16 27 -3 16 1 22 10 19 7 -3 15 -15 16 -27z m-200
-4 c17 -20 4 -56 -18 -50 -11 3 -16 11 -13 19 3 9 -2 14 -13 14 -17 0 -16 1 2
15 24 18 29 18 42 2z m290 -29 c16 -20 34 -127 28 -162 -5 -28 2 -44 59 -123
l65 -91 -7 -206 c-5 -181 -4 -208 10 -224 14 -15 17 -61 22 -319 4 -165 3
-303 -2 -306 -13 -8 -148 30 -201 56 -108 54 -138 162 -87 325 15 48 47 130
71 182 57 125 78 209 71 280 -4 30 -24 127 -47 214 -42 168 -47 216 -29 312
15 78 23 90 47 62z m-179 -22 c15 -18 3 -46 -19 -46 -15 0 -18 6 -16 28 2 15
4 28 5 30 3 7 20 0 30 -12z m2452 -996 c-45 -133 -133 -324 -138 -299 -8 36
157 443 173 427 3 -4 -13 -61 -35 -128z"/>
<path d="M1205 3186 c-71 -33 -102 -68 -217 -254 -146 -233 -212 -298 -453
-447 -131 -80 -155 -104 -155 -150 0 -39 43 -89 86 -99 15 -4 55 -20 89 -35
61 -28 63 -30 105 -116 27 -54 55 -96 76 -112 42 -32 113 -53 179 -53 49 0 52
2 68 35 9 20 17 39 17 44 0 5 -35 10 -77 13 -112 6 -130 18 -180 113 -49 95
-95 140 -158 156 -53 13 -105 52 -105 79 0 29 35 65 142 141 186 134 255 211
403 449 43 69 86 134 96 145 19 19 19 18 19 -50 0 -118 53 -195 133 -195 109
0 189 211 116 304 -46 59 -105 69 -184 32z"/>
<path d="M1953 3194 c-112 -40 -119 -228 -13 -318 63 -53 144 -22 193 73 51
101 29 197 -54 238 -51 26 -69 27 -126 7z"/>
<path d="M1540 3090 c-35 -35 -25 -75 47 -182 l46 -69 38 43 c82 94 110 184
66 212 -21 14 -66 -9 -82 -41 -11 -21 -11 -21 -23 6 -7 16 -24 33 -38 39 -32
15 -31 15 -54 -8z"/>
<path d="M2500 2936 c0 -2 38 -31 85 -64 94 -67 90 -68 97 17 3 30 -1 36 -22
42 -26 7 -160 12 -160 5z"/>
<path d="M2775 2878 c-2 -7 -8 -42 -14 -78 l-9 -65 51 -52 c34 -35 53 -49 58
-40 3 6 11 46 18 87 7 41 15 83 17 92 4 13 -8 24 -45 43 -57 28 -70 30 -76 13z"/>
<path d="M2430 2843 c0 -10 9 -53 20 -97 11 -43 20 -80 20 -82 0 -2 47 -4 105
-4 58 0 105 4 105 9 0 20 -217 191 -242 191 -4 0 -8 -8 -8 -17z"/>
<path d="M1927 2813 c-10 -9 -8 -66 2 -82 8 -12 13 -12 35 2 31 21 60 22 76 2
27 -32 50 -12 50 45 0 39 -14 45 -50 23 -29 -17 -32 -17 -61 0 -33 19 -42 20
-52 10z"/>
<path d="M2976 2753 c-2 -10 -12 -62 -21 -115 l-17 -98 71 -95 c40 -52 76 -95
81 -95 13 0 30 93 30 165 0 85 -28 157 -82 212 -47 48 -54 51 -62 26z"/>
<path d="M1990 2680 c0 -5 5 -10 10 -10 6 0 10 5 10 10 0 6 -4 10 -10 10 -5 0
-10 -4 -10 -10z"/>
<path d="M1990 2600 c0 -5 5 -10 10 -10 6 0 10 5 10 10 0 6 -4 10 -10 10 -5 0
-10 -4 -10 -10z"/>
<path d="M2613 2573 c-57 -2 -103 -8 -103 -13 0 -5 7 -28 16 -50 l16 -40 147
6 c80 3 152 8 160 10 10 3 1 18 -29 49 -35 36 -50 45 -75 43 -16 -1 -76 -4
-132 -5z"/>
<path d="M1980 2520 c0 -5 4 -10 9 -10 6 0 13 5 16 10 3 6 -1 10 -9 10 -9 0
-16 -4 -16 -10z"/>
<path d="M3478 2515 c-41 -22 -44 -50 -13 -96 26 -36 31 -39 75 -39 43 0 49 3
60 29 10 24 9 35 -5 64 -15 32 -50 58 -78 57 -7 -1 -24 -7 -39 -15z"/>
<path d="M3296 2405 c-53 -49 -19 -145 53 -145 25 0 32 7 51 45 12 25 26 45
31 45 18 0 8 27 -19 53 -36 35 -80 36 -116 2z"/>
<path d="M2620 2381 c-25 -8 -25 -8 25 -57 72 -71 133 -98 220 -97 71 0 146
19 152 39 2 5 -15 36 -37 67 l-41 57 -147 -1 c-81 -1 -158 -4 -172 -8z"/>
<path d="M3468 2312 c-55 -50 -34 -134 38 -148 100 -19 142 123 48 162 -45 19
-49 18 -86 -14z"/>
<path d="M3000 1871 c0 -13 90 -243 99 -253 9 -10 212 -50 220 -43 11 12 -74
157 -120 204 -48 49 -108 83 -166 96 -21 4 -33 3 -33 -4z"/>
<path d="M2855 1859 c-16 -5 -40 -17 -52 -27 l-21 -17 54 -92 55 -93 50 0 c27
0 49 2 49 5 0 14 -93 235 -99 234 -3 0 -19 -5 -36 -10z"/>
<path d="M2673 1716 c-15 -19 -36 -49 -47 -66 l-18 -32 83 8 c46 3 86 8 87 10
6 4 -62 114 -70 114 -3 0 -19 -15 -35 -34z"/>
<path d="M2661 1531 c-25 -3 -46 -10 -47 -16 -3 -11 139 -138 160 -143 11 -2
116 144 116 162 0 8 -171 5 -229 -3z"/>
<path d="M2930 1424 l-70 -109 27 -11 c69 -29 63 -33 136 93 37 64 65 118 63
120 -2 3 -23 7 -45 10 l-40 6 -71 -109z"/>
<path d="M3126 1392 c-36 -61 -66 -113 -66 -116 0 -28 143 32 195 81 42 40 75
83 75 99 0 12 -30 23 -107 39 -31 6 -32 5 -97 -103z"/>
</g>
</svg>
